<svg xmlns="http://www.w3.org/2000/svg" width="64" height="64"><g color="#000" fill-rule="evenodd" stroke="#000"><path d="M13.592 3.233L1.954 14.87 17.06 64.5h33.615L65.78 14.87 54.14 3.234z" overflow="visible" fill="#c80000" stroke-width="2"/><path d="M28.026 7.106v2.1c-2.745.16-4.78 1.4-4.44 4.426l1.443 10.4h17.78l1.443-10.046c.237-3.013-1.985-4.52-4.547-4.78v-2.1zM54.71 9.28c-2.797.362-3.487 1.255-3.76 4.352l-3.277 36.23c-.156 2.123.74 3.405 2.175 4.054l11.548-37.95zM6.337 15.968L17.933 54.07c1.507-.508 2.407-1.625 2.233-3.82L16.89 13.987c-.064-2.776-1.494-4.244-3.888-4.685zm19.87 21.44l.656 12.454c.026 3.1 1.595 4.398 4.44 4.57v2.514H18.808l1.12 3.683h27.878l1.12-3.683H36.43V54.43c3.37-.253 4.29-.647 4.547-4.18l.656-12.844z" overflow="visible" fill="#ffeb00" stroke-width="2" stroke-linecap="square"/></g></svg>